<?xml version="1.0" encoding="utf-8"?>
<!-- Generator: Adobe Illustrator 25.2.0, SVG Export Plug-In . SVG Version: 6.00 Build 0)  -->
<svg version="1.1" id="Layer_1" xmlns="http://www.w3.org/2000/svg" xmlns:xlink="http://www.w3.org/1999/xlink" x="0px" y="0px"
	 viewBox="0 0 150 150" style="enable-background:new 0 0 150 150;" xml:space="preserve">
<style type="text/css">
	.st0{fill:none;stroke:#000000;stroke-width:6;stroke-miterlimit:10;}
	.st1{fill:none;stroke:#000000;stroke-width:5.4;stroke-miterlimit:10;}
</style>
<circle class="st0" cx="-177.7" cy="75" r="37.5"/>
<path class="st0" d="M-177.4,88.4V76.6c8.4,0,13.2-5.5,13.2-12.2s-5.5-12.2-12.2-12.2c-8.8,0-12.6,6.4-12.6,12.6"/>
<line class="st0" x1="-177.4" y1="93.5" x2="-177.4" y2="101.3"/>
<g>
	<line class="st0" x1="75" y1="104.9" x2="75" y2="111.9"/>
	<path class="st0" d="M75,93.7V79c11.3,0,20.5-9.2,20.5-20.5S86.3,38.1,75,38.1s-20.5,9.2-20.5,20.5"/>
</g>
<circle class="st0" cx="-63.3" cy="75" r="37.5"/>
<line class="st0" x1="-63.7" y1="94.2" x2="-63.7" y2="101"/>
<g>
	<g>
		<g>
			<path class="st1" d="M-63.7,89.1l0-9.9l0.3,0c7.5,0,13.6-6.1,13.6-13.6s-6.1-13.6-13.6-13.6S-77,57.9-77,65.5"/>
			<line class="st1" x1="-63.7" y1="89.1" x2="-63.6" y2="79.1"/>
		</g>
	</g>
</g>
</svg>
